<?xml version="1.0" standalone="no"?>
<!DOCTYPE svg PUBLIC "-//W3C//DTD SVG 20010904//EN"
 "http://www.w3.org/TR/2001/REC-SVG-20010904/DTD/svg10.dtd">
<svg version="1.0" xmlns="http://www.w3.org/2000/svg"
 width="496.000000pt" height="496.000000pt" viewBox="0 0 496.000000 496.000000"
 preserveAspectRatio="xMidYMid meet">
<metadata>
Created by potrace 1.11, written by Peter Selinger 2001-2013
</metadata>
<g transform="translate(0.000000,496.000000) scale(0.100000,-0.100000)"
fill="#000000" stroke="none">
<path d="M3912 4610 c-55 -40 -108 -122 -136 -210 l-23 -71 -109 87 c-60 48
-130 105 -156 127 -26 21 -52 37 -58 35 -12 -4 59 -109 150 -220 27 -34 46
-65 42 -69 -4 -3 -60 -18 -124 -33 -65 -15 -120 -31 -123 -36 -8 -13 17 -18
209 -40 99 -11 181 -22 183 -24 2 -1 -17 -45 -41 -97 -55 -116 -99 -246 -123
-363 l-18 -89 -135 6 c-135 5 -250 23 -250 38 0 4 8 14 18 21 28 20 41 50 31
75 -20 55 -104 71 -279 54 -63 -6 -128 -14 -145 -17 -28 -4 -36 2 -108 91
-126 155 -211 203 -374 212 -103 6 -196 -11 -291 -53 -53 -23 -53 -23 -75 -4
-32 31 -82 26 -119 -10 -26 -27 -30 -36 -25 -67 6 -33 2 -41 -54 -101 -103
-113 -144 -228 -138 -391 l4 -93 -25 30 c-14 17 -52 75 -84 129 -79 131 -100
153 -147 153 -48 0 -99 -40 -99 -78 0 -14 11 -44 24 -67 29 -48 217 -223 331
-307 78 -57 145 -136 145 -169 0 -9 -6 -32 -14 -51 l-15 -34 -143 71 c-248
123 -400 161 -445 113 -29 -32 -36 -61 -22 -91 15 -33 46 -44 144 -52 123 -9
405 -114 405 -150 0 -8 -11 -63 -25 -123 l-26 -109 -167 39 c-297 68 -589 108
-797 108 -58 0 -105 4 -105 9 0 5 13 52 30 106 16 54 30 99 30 102 0 2 -34
-22 -76 -53 l-76 -56 -42 31 c-22 16 -81 58 -131 93 l-90 62 38 -49 c58 -78
118 -168 114 -172 -2 -2 -42 1 -88 6 -82 9 -199 2 -264 -17 -29 -9 -29 -9 27
-25 31 -10 101 -26 155 -37 54 -11 109 -22 121 -25 l24 -6 -29 -21 c-41 -31
-123 -111 -123 -120 0 -12 68 -10 115 3 45 12 185 81 229 112 28 20 33 20 190
8 328 -25 435 -46 732 -142 l156 -51 -6 -31 c-22 -108 -30 -206 -30 -394 -1
-208 -1 -213 -21 -207 -153 46 -165 54 -278 182 -21 23 -44 42 -52 42 -28 0
-67 -25 -81 -51 -23 -46 -18 -78 20 -114 91 -85 200 -137 355 -169 l65 -12 22
-115 c32 -159 34 -149 -29 -149 -165 0 -311 34 -452 105 -60 30 -120 55 -133
55 -37 0 -72 -43 -72 -89 0 -23 7 -46 16 -55 8 -9 59 -29 113 -46 161 -50 282
-70 462 -77 l165 -6 40 -61 c21 -33 58 -84 81 -113 l42 -52 -26 -21 c-79 -62
-239 -115 -317 -104 l-49 6 6 -38 c8 -48 59 -101 112 -115 98 -27 248 29 363
137 l71 65 63 -12 c76 -14 275 -17 375 -6 l73 8 -7 -109 c-7 -124 7 -240 42
-349 l23 -73 -78 0 c-152 0 -265 -59 -290 -151 -22 -82 11 -99 103 -53 68 35
204 45 285 21 60 -18 91 -12 116 25 21 30 21 32 -18 75 -45 51 -65 92 -82 171
-28 135 -10 272 54 413 l29 65 69 13 c235 46 635 205 848 339 l50 30 30 -25
c163 -132 338 -246 523 -341 l93 -47 0 -40 c1 -44 15 -69 57 -97 38 -25 60
-23 148 12 87 35 179 40 280 15 33 -8 66 -14 73 -15 43 -1 -34 97 -101 129
-92 44 -263 62 -366 40 l-51 -11 -105 63 c-57 34 -135 86 -172 116 -82 65
-293 261 -293 273 0 4 39 39 88 77 215 173 363 376 412 570 46 177 22 221
-164 298 l-114 47 146 105 c369 264 642 504 768 676 47 64 58 112 27 121 -33
10 -445 65 -638 85 -209 23 -462 41 -559 41 l-62 0 8 78 c9 96 47 229 100 350
44 100 45 101 133 121 86 20 209 86 277 151 34 33 60 62 57 64 -3 3 -79 -10
-169 -29 -91 -18 -165 -33 -166 -32 -1 1 9 65 22 142 26 152 29 185 16 185 -5
0 -28 -13 -50 -30z m-1568 -745 c21 -19 35 -39 31 -45 -3 -5 -2 -10 3 -10 6 0
13 7 16 16 3 8 2 13 -2 10 -4 -3 -13 4 -20 15 -14 22 -13 23 23 9 18 -7 25
-15 21 -25 -3 -8 -1 -15 4 -15 6 0 10 7 10 15 0 16 58 20 94 6 18 -7 16 -10
-15 -34 -19 -14 -65 -40 -102 -58 -64 -29 -69 -30 -92 -15 -24 16 -24 16 -14
-13 6 -16 21 -38 34 -51 28 -26 46 -19 93 34 24 28 33 32 42 22 8 -11 4 -21
-16 -45 -36 -43 -76 -62 -113 -55 -23 5 -32 2 -37 -10 -9 -24 -70 -21 -84 3
-17 33 -13 108 7 115 14 6 15 9 4 16 -12 7 -12 13 -2 38 15 35 37 48 45 26 4
-9 19 -13 48 -12 l43 1 -42 4 c-42 4 -43 5 -43 42 0 62 11 65 64 16z m58 -168
c-26 -25 -36 -30 -49 -21 -25 15 -30 37 -7 30 11 -3 32 3 49 14 41 27 45 15 7
-23z m618 37 c0 -16 -151 -233 -188 -271 -79 -81 -158 -104 -361 -102 -112 1
-123 2 -96 13 17 8 86 16 155 19 206 9 248 34 380 222 35 50 70 98 78 108 15
17 32 23 32 11z m335 -214 c44 -12 94 -29 110 -39 41 -23 125 -136 125 -167 0
-32 -40 -50 -165 -73 l-90 -18 -6 33 c-8 48 -27 72 -138 175 -81 76 -98 96
-88 107 16 20 146 10 252 -18z m-260 -74 c105 -83 155 -138 155 -172 0 -41
-61 -102 -144 -142 -151 -75 -460 -93 -581 -35 -32 15 -95 96 -95 122 0 5 48
9 108 8 181 -1 272 31 372 132 36 36 74 85 84 108 16 37 21 41 35 31 9 -7 39
-30 66 -52z m-1104 -36 c57 -12 156 -25 219 -28 102 -6 112 -9 92 -20 -45 -26
-351 13 -537 69 -64 19 -75 25 -75 44 0 22 0 22 99 -11 54 -18 145 -43 202
-54z m1884 50 c306 -24 794 -86 812 -104 12 -12 -22 -58 -107 -145 -218 -222
-571 -458 -1015 -676 -332 -163 -476 -213 -646 -222 -137 -8 -176 7 -266 100
-38 40 -89 98 -112 130 -39 51 -71 73 -71 48 0 -35 214 -483 275 -577 110
-169 234 -264 344 -264 71 0 125 25 215 98 188 151 344 327 471 532 32 52 63
99 69 103 22 16 78 -3 171 -58 111 -65 124 -84 106 -147 -43 -144 -174 -352
-306 -484 -201 -203 -584 -400 -892 -458 -40 -8 -73 -13 -73 -11 0 1 27 19 60
39 33 21 60 41 60 45 0 12 -64 68 -98 86 -19 9 -64 19 -100 22 -64 5 -69 4
-101 -23 -33 -27 -91 -135 -106 -197 -5 -17 -18 -33 -34 -39 -14 -6 -103 -11
-201 -12 -150 0 -188 3 -264 22 -49 12 -104 32 -122 43 -71 43 -141 166 -171
300 -25 107 -24 510 1 704 10 77 19 141 21 143 2 2 39 -15 84 -37 44 -23 83
-41 86 -41 3 0 1 9 -5 19 -19 37 -12 78 19 103 l28 25 -97 31 -97 32 17 83
c13 63 23 89 44 110 23 23 26 33 20 55 -11 36 -9 98 5 150 11 39 14 42 45 42
45 0 60 20 52 68 -5 37 -4 39 32 57 22 11 60 19 94 20 62 1 92 18 102 61 6 22
11 25 43 22 34 -3 36 -5 58 -70 43 -128 82 -166 190 -188 148 -30 569 40 685
114 25 16 64 26 139 35 121 15 241 44 285 69 27 16 31 24 34 66 2 29 -5 76
-17 116 -12 38 -21 71 -21 75 0 3 26 4 58 1 31 -3 120 -10 197 -16z m-220
-1069 c-58 -107 -326 -406 -423 -473 -40 -28 -49 -30 -110 -26 -44 2 -84 12
-116 27 -91 45 -202 179 -194 234 3 22 6 22 152 19 88 -2 167 1 195 8 31 7
133 64 282 155 200 123 234 141 237 125 2 -11 -9 -42 -23 -69z"/>
<path d="M2335 3830 c-3 -5 1 -10 10 -10 9 0 13 5 10 10 -3 6 -8 10 -10 10 -2
0 -7 -4 -10 -10z"/>
<path d="M3357 3373 c-22 -21 16 -103 47 -103 17 0 54 41 58 64 5 31 -81 63
-105 39z"/>
<path d="M2910 3303 c-26 -9 -70 -56 -70 -74 0 -24 71 -50 153 -57 78 -6 82 1
41 63 -45 67 -77 85 -124 68z"/>
</g>
</svg>
